<svg width="128" height="160" viewBox="0 0 128 160" xmlns="http://www.w3.org/2000/svg" shape-rendering="crispEdges">
  <rect x="40" y="8" width="48" height="8" fill="#1f2430"/>
  <rect x="32" y="16" width="64" height="8" fill="#1f2430"/>
  <rect x="24" y="24" width="16" height="8" fill="#1f2430"/>
  <rect x="88" y="24" width="16" height="8" fill="#1f2430"/>
  <rect x="32" y="24" width="64" height="16" fill="#232733"/>
  <rect x="40" y="32" width="48" height="40" fill="#ffd9b7"/>
  <rect x="48" y="40" width="8" height="8" fill="#171717"/>
  <rect x="72" y="40" width="8" height="8" fill="#171717"/>
  <rect x="56" y="56" width="16" height="8" fill="#d19474"/>
  <rect x="48" y="64" width="32" height="8" fill="#f4efe4"/>
  <rect x="32" y="72" width="64" height="16" fill="#4e678b"/>
  <rect x="24" y="88" width="80" height="24" fill="#4e678b"/>
  <rect x="16" y="96" width="16" height="16" fill="#4e678b"/>
  <rect x="96" y="96" width="16" height="16" fill="#4e678b"/>
  <rect x="40" y="88" width="24" height="24" fill="#d7edf9"/>
  <rect x="64" y="88" width="24" height="24" fill="#2b3342"/>
  <rect x="72" y="96" width="8" height="8" fill="#9fe2ff"/>
  <rect x="48" y="112" width="32" height="8" fill="#41556f"/>
  <rect x="32" y="120" width="64" height="16" fill="#3c4f68"/>
  <rect x="40" y="128" width="16" height="16" fill="#344558"/>
  <rect x="72" y="128" width="16" height="16" fill="#344558"/>
  <rect x="40" y="144" width="16" height="8" fill="#1a2030"/>
  <rect x="72" y="144" width="16" height="8" fill="#1a2030"/>
</svg>
