<svg width="128" height="160" viewBox="0 0 128 160" xmlns="http://www.w3.org/2000/svg" shape-rendering="crispEdges">
  <rect x="40" y="8" width="48" height="8" fill="#572812"/>
  <rect x="32" y="16" width="64" height="8" fill="#572812"/>
  <rect x="24" y="24" width="16" height="8" fill="#572812"/>
  <rect x="88" y="24" width="16" height="8" fill="#572812"/>
  <rect x="32" y="24" width="64" height="16" fill="#693316"/>
  <rect x="40" y="32" width="48" height="40" fill="#ffd3a8"/>
  <rect x="48" y="40" width="8" height="8" fill="#171717"/>
  <rect x="72" y="40" width="8" height="8" fill="#171717"/>
  <rect x="56" y="56" width="16" height="8" fill="#cd8c71"/>
  <rect x="48" y="64" width="32" height="8" fill="#fef3d6"/>
  <rect x="32" y="72" width="64" height="16" fill="#ef5a46"/>
  <rect x="24" y="88" width="80" height="24" fill="#ef5a46"/>
  <rect x="16" y="96" width="16" height="16" fill="#ef5a46"/>
  <rect x="96" y="72" width="16" height="40" fill="#ef5a46"/>
  <rect x="104" y="64" width="8" height="8" fill="#ffd3a8"/>
  <rect x="40" y="88" width="40" height="24" fill="#fff0bb"/>
  <rect x="48" y="96" width="24" height="8" fill="#e7d99f"/>
  <rect x="32" y="112" width="64" height="8" fill="#ca4938"/>
  <rect x="24" y="120" width="80" height="16" fill="#c24434"/>
  <rect x="40" y="128" width="16" height="16" fill="#b33c2d"/>
  <rect x="72" y="128" width="16" height="16" fill="#b33c2d"/>
  <rect x="40" y="144" width="16" height="8" fill="#2e1a15"/>
  <rect x="72" y="144" width="16" height="8" fill="#2e1a15"/>
</svg>
