<svg width="128" height="160" viewBox="0 0 128 160" xmlns="http://www.w3.org/2000/svg" shape-rendering="crispEdges">
  <rect x="40" y="8" width="48" height="8" fill="#3b2418"/>
  <rect x="32" y="16" width="64" height="8" fill="#3b2418"/>
  <rect x="24" y="24" width="16" height="8" fill="#3b2418"/>
  <rect x="88" y="24" width="16" height="8" fill="#3b2418"/>
  <rect x="24" y="32" width="16" height="16" fill="#3b2418"/>
  <rect x="88" y="32" width="16" height="16" fill="#3b2418"/>
  <rect x="32" y="24" width="64" height="48" fill="#4e2918"/>
  <rect x="40" y="32" width="48" height="40" fill="#ffd8b2"/>
  <rect x="48" y="40" width="8" height="8" fill="#151515"/>
  <rect x="72" y="40" width="8" height="8" fill="#151515"/>
  <rect x="56" y="56" width="16" height="8" fill="#d79679"/>
  <rect x="48" y="64" width="32" height="8" fill="#c78066"/>
  <rect x="40" y="72" width="48" height="8" fill="#f3ead3"/>
  <rect x="32" y="80" width="64" height="16" fill="#6b5244"/>
  <rect x="24" y="96" width="80" height="24" fill="#6b5244"/>
  <rect x="16" y="104" width="16" height="16" fill="#6b5244"/>
  <rect x="96" y="104" width="16" height="16" fill="#6b5244"/>
  <rect x="40" y="96" width="16" height="24" fill="#efe2bc"/>
  <rect x="72" y="96" width="16" height="24" fill="#efe2bc"/>
  <rect x="56" y="104" width="16" height="8" fill="#d9cca6"/>
  <rect x="32" y="120" width="64" height="16" fill="#7b6253"/>
  <rect x="40" y="128" width="16" height="16" fill="#71584b"/>
  <rect x="72" y="128" width="16" height="16" fill="#71584b"/>
  <rect x="40" y="144" width="16" height="8" fill="#2a1d15"/>
  <rect x="72" y="144" width="16" height="8" fill="#2a1d15"/>
</svg>
